<svg width="12" height="12" viewBox="0 0 12 12" fill="none" xmlns="http://www.w3.org/2000/svg">
<path d="M5.49968 6.56654V8.73322C5.49968 8.8751 5.54754 8.9939 5.64326 9.08962C5.73898 9.18534 5.85778 9.2332 5.99966 9.2332C6.14154 9.2332 6.26034 9.18534 6.35606 9.08962C6.45178 8.9939 6.49964 8.8751 6.49964 8.73322V6.56654H8.66633C8.8082 6.56654 8.927 6.51868 9.02272 6.42295C9.11845 6.32723 9.16631 6.20843 9.16631 6.06655C9.16631 5.92468 9.11845 5.80588 9.02272 5.71015C8.927 5.61443 8.8082 5.56657 8.66633 5.56657H6.49964V3.39989C6.49964 3.25801 6.45178 3.13921 6.35606 3.04349C6.26034 2.94776 6.14154 2.8999 5.99966 2.8999C5.85778 2.8999 5.73898 2.94776 5.64326 3.04349C5.54754 3.13921 5.49968 3.25801 5.49968 3.39989V5.56657H3.33299C3.19111 5.56657 3.07231 5.61443 2.97659 5.71015C2.88087 5.80588 2.83301 5.92468 2.83301 6.06655C2.83301 6.20843 2.88087 6.32723 2.97659 6.42295C3.07231 6.51868 3.19111 6.56654 3.33299 6.56654H5.49968ZM1.53814 11.7332C1.20139 11.7332 0.916341 11.6165 0.683008 11.3832C0.449674 11.1499 0.333008 10.8648 0.333008 10.5281V1.60504C0.333008 1.26828 0.449674 0.983236 0.683008 0.749902C0.916341 0.516569 1.20139 0.399902 1.53814 0.399902H10.4612C10.7979 0.399902 11.083 0.516569 11.3163 0.749902C11.5496 0.983236 11.6663 1.26828 11.6663 1.60504V10.5281C11.6663 10.8648 11.5496 11.1499 11.3163 11.3832C11.083 11.6165 10.7979 11.7332 10.4612 11.7332H1.53814ZM1.53814 10.7332H10.4612C10.5125 10.7332 10.5595 10.7119 10.6022 10.6691C10.645 10.6264 10.6663 10.5794 10.6663 10.5281V1.60504C10.6663 1.55375 10.645 1.50673 10.6022 1.46399C10.5595 1.42125 10.5125 1.39989 10.4612 1.39989H1.53814C1.48685 1.39989 1.43984 1.42125 1.39709 1.46399C1.35436 1.50673 1.33299 1.55375 1.33299 1.60504V10.5281C1.33299 10.5794 1.35436 10.6264 1.39709 10.6691C1.43984 10.7119 1.48685 10.7332 1.53814 10.7332Z" fill="white"/>
</svg>
