<svg width="121" height="40" viewBox="0 0 121 40" fill="none" xmlns="http://www.w3.org/2000/svg">
<g clip-path="url(#clip0_1_3788)">
<path d="M38.9945 7.03225C38.9812 7.00574 38.9502 6.98806 38.9191 6.9969C38.6489 7.1118 38.3786 7.20902 38.0995 7.31066C37.3331 7.59349 36.5356 7.7791 35.7381 7.9647C34.8255 8.16798 33.8951 8.31382 32.9869 8.5392C32.2027 8.72922 31.4229 8.95902 30.6698 9.25953C30.1027 9.48048 29.5445 9.71912 29.0217 10.024C28.4014 10.3643 27.9008 10.8725 27.4134 11.3763C26.966 11.8448 26.5141 12.3132 26.1198 12.8302C25.8983 13.1219 25.7122 13.4401 25.535 13.7583C25.8141 12.7065 26.204 11.6459 26.9172 10.8062C26.9704 10.74 26.9084 10.6604 26.8331 10.6958C26.6514 10.7841 26.4831 10.899 26.3103 11.0051C24.99 11.8978 23.8115 13.007 22.797 14.2311C22.3008 14.8365 21.8223 15.4552 21.428 16.1314C20.9717 16.9224 20.6261 17.7753 20.378 18.6547C20.3514 18.1333 20.3957 17.6118 20.4666 17.0948C20.4799 17.0019 20.4932 16.9136 20.4976 16.8208C20.4976 16.7589 20.5153 16.6705 20.4533 16.6352C20.409 16.6131 20.3647 16.6352 20.3337 16.6705C20.2938 16.7103 20.2628 16.7545 20.2274 16.7987C20.1565 16.8915 20.0856 16.9887 20.0191 17.0859C19.7976 17.3997 19.5983 17.7311 19.4255 18.0758C19.0002 18.9464 18.6103 19.8258 18.216 20.7097C17.8172 21.5935 17.4495 22.495 17.0641 23.3833C16.6964 24.2229 16.2932 25.0493 15.8767 25.8668C15.6508 26.3043 15.4204 26.7418 15.1502 27.1573C15.035 27.334 14.9153 27.5064 14.7913 27.6743C14.809 27.6389 14.8267 27.608 14.8445 27.5727C15.2077 26.8612 15.4558 26.1011 15.6818 25.3365C15.8679 24.846 16.054 24.3555 16.2622 23.8782C16.5058 23.3347 16.7229 22.7823 16.9312 22.2254C17.3476 21.1737 17.8527 20.1661 18.4286 19.1894C18.8008 18.5575 19.1995 17.9388 19.5628 17.298C19.904 16.697 20.1742 16.0607 20.4843 15.4464C20.7147 14.9868 20.9495 14.5272 21.1489 14.0543C21.2065 13.9218 21.2641 13.7848 21.3172 13.6478C21.3394 13.5815 21.366 13.5108 21.3793 13.4401C21.3793 13.4136 21.3837 13.3826 21.366 13.3561C21.3261 13.2942 21.2464 13.3163 21.1976 13.3561C21.0558 13.4622 20.9229 13.5727 20.7856 13.6876C20.3426 14.0632 19.8818 14.4167 19.4077 14.7526C20.4223 13.524 21.5033 12.269 21.9907 10.7223C22.0261 10.5897 22.1236 10.2583 22.0261 10.1478C21.9596 10.0903 21.8843 10.1699 21.8445 10.2185C21.4324 10.7311 20.9983 11.2261 20.5153 11.6724C20.7014 11.3807 20.8786 11.0802 21.0381 10.7709C21.304 10.2406 21.5653 9.70586 21.7824 9.15346C22.0394 8.47733 22.2343 7.78351 22.4381 7.09412C22.6464 6.34286 22.8324 5.58276 23.0584 4.83591C23.0805 4.76521 23.1027 4.6945 23.116 4.61937C23.116 4.59728 23.1248 4.57076 23.116 4.54867C23.1027 4.50889 23.054 4.48238 23.0141 4.49564C22.9786 4.50447 22.9432 4.52657 22.9122 4.55309C22.4603 4.97733 22.0571 5.45018 21.6229 5.88768C21.304 6.2147 20.9805 6.54614 20.6748 6.88642C20.059 7.58465 19.5096 8.34475 19.0755 9.16672C18.6812 9.91357 18.3932 10.7223 18.216 11.5487C17.9767 12.6269 17.897 13.7317 17.7464 14.8233C17.5736 14.3504 17.4717 13.8511 17.4495 13.3429C17.4407 13.1749 17.4318 12.9982 17.4229 12.817C17.4229 12.733 17.4229 12.5518 17.2945 12.5916C17.2546 12.6137 17.2324 12.6579 17.2103 12.7021C17.1704 12.7816 17.135 12.8656 17.0995 12.9495C16.9888 13.2059 16.8647 13.4533 16.7495 13.7052C16.4217 14.4123 16.1381 15.1459 15.9919 15.9104C15.8634 16.5379 15.797 17.1787 15.797 17.8151C15.797 18.7078 15.9343 19.5872 15.9299 20.4843C15.6862 20.091 15.4381 19.6932 15.3362 19.2336C15.2831 19.0171 15.2432 18.8006 15.2077 18.584C15.1989 18.5222 15.1856 18.4559 15.1767 18.394C15.1679 18.3498 15.1679 18.2924 15.1324 18.2614C15.0527 18.1995 14.9995 18.3056 14.9818 18.3719C14.8312 18.8492 14.7558 19.353 14.7381 19.8567C14.716 20.365 14.7647 20.8732 14.8134 21.3814C14.8577 21.841 14.9065 22.3006 14.9375 22.7646C14.9153 22.9325 14.9065 23.1004 14.8932 23.2684C14.84 24.0948 14.747 24.9211 14.5875 25.7343C14.4812 26.3883 14.3438 27.0335 14.1134 27.661C13.9805 28.1074 13.8077 28.5405 13.5907 28.9514C13.5552 29.0089 13.5242 29.0708 13.4932 29.1282C13.0634 29.8927 12.6691 30.6749 12.235 31.435C11.9736 31.8814 11.721 32.3365 11.4862 32.8006C11.3134 33.1011 11.154 33.406 11.0166 33.7198C10.897 33.9849 10.7818 34.2545 10.6755 34.524C10.6356 34.6389 10.5204 34.8687 10.5824 34.9836C10.6755 35.0676 10.7508 34.9571 10.8084 34.8378C10.8217 34.8246 10.835 34.8113 10.8438 34.798C10.8793 34.7494 10.9103 34.7008 10.9369 34.6478C11.0077 34.5285 11.0786 34.4136 11.1451 34.2987C11.4375 33.7905 11.721 33.2778 12.009 32.7652C12.4388 31.9698 12.9084 31.1964 13.3824 30.423C13.4622 30.2949 13.5375 30.1667 13.6172 30.0341C13.7147 29.8927 13.8122 29.7557 13.9141 29.6143C14.0957 29.3668 14.2907 29.1282 14.5033 28.9073C14.7647 28.62 15.0926 28.3416 15.3983 28.0985C15.8413 27.7406 16.24 27.334 16.6299 26.923C17.5381 25.9376 18.3932 24.9035 19.2793 23.8959C19.8685 23.1888 20.5021 22.5083 21.1799 21.8896C21.6805 21.4698 22.1989 21.0676 22.7261 20.6831C23.5679 20.0821 24.454 19.5474 25.2913 18.9376C26.2793 18.2172 27.2451 17.466 28.1312 16.6219C28.1577 16.591 28.1888 16.5556 28.171 16.5114C28.1533 16.454 28.0824 16.4628 28.0337 16.4761C27.8343 16.5291 27.6438 16.6086 27.4489 16.6573C27.2495 16.7014 27.0457 16.7412 26.8464 16.7766C26.3014 16.8826 25.7432 16.9268 25.1894 16.9312C25.504 16.8119 25.8229 16.697 26.1419 16.591C26.935 16.3523 27.7369 16.149 28.5122 15.8574C29.89 15.3845 31.0951 14.536 32.1983 13.6036C32.4685 13.3782 32.7432 13.1528 32.9913 12.9009C33.0356 12.8479 33.1021 12.7993 33.1109 12.7242C33.1109 12.6358 33.0046 12.6358 32.9381 12.6535C32.3179 12.786 31.6932 12.9142 31.0641 12.9805C30.6476 13.0203 30.2134 13.0512 29.797 12.9761C30.2799 12.8302 30.7672 12.7021 31.2634 12.6004C31.7242 12.5076 32.1894 12.4192 32.6369 12.2823C33.3324 12.079 33.9571 11.6812 34.4888 11.1951C34.8077 10.8902 35.1046 10.5632 35.397 10.2317C35.7071 9.87821 35.9862 9.49816 36.3141 9.15788C36.7438 8.70713 37.2134 8.29614 37.7141 7.92935C38.0862 7.63768 38.485 7.39021 38.897 7.15599C38.928 7.13831 38.959 7.12947 38.99 7.1118C39.0166 7.09412 39.0255 7.06319 39.0122 7.03225H38.9945ZM14.7824 28.0278C14.7824 28.0278 14.7824 28.0278 14.7736 28.0278H14.778H14.7824ZM15.8413 23.2772C16.1824 22.1636 16.5103 21.0455 16.8647 19.9363C17.197 18.8006 17.5293 17.6648 17.8793 16.5379C18.2691 15.2033 18.5793 13.8466 18.9913 12.5165C19.2837 11.5796 19.6115 10.6516 19.9793 9.74122C20.3115 8.91925 20.6837 8.11054 21.1888 7.37695C20.7767 8.35359 20.3514 9.32139 19.9926 10.3157C19.647 11.1863 19.3546 12.0746 19.1021 12.9761C18.4862 14.9691 18.1141 17.0285 17.5204 19.0259C17.2679 19.9098 16.9843 20.7848 16.6786 21.6554C16.4615 22.2785 16.2046 22.9016 15.9919 23.5247C15.5179 24.9079 15.0793 26.3043 14.5388 27.6655C14.5299 27.6743 14.521 27.6831 14.5122 27.692C14.4945 27.6876 14.4767 27.692 14.4634 27.6964C14.5565 27.4047 14.6451 27.1086 14.7204 26.8126C15.0793 25.6282 15.4736 24.4571 15.8413 23.2772ZM29.159 12.4148C28.6451 12.7684 28.1312 13.1219 27.6438 13.5064C26.8331 14.1516 26.0445 14.8189 25.2603 15.495C24.804 15.9016 24.3919 16.3567 23.9622 16.7942C23.5369 17.2362 23.1071 17.6692 22.704 18.1288C22.1679 18.7254 21.6185 19.3132 21.1046 19.9319C20.6527 20.4622 20.2407 21.0278 19.8331 21.5935C19.5318 21.9956 19.2261 22.3978 18.9426 22.8132C18.6058 23.2949 18.2558 23.7633 17.9191 24.245C17.5824 24.7311 17.2502 25.2172 16.9223 25.7078C16.7141 26.0171 16.5058 26.3309 16.2622 26.6181C15.9742 26.9584 15.6774 27.3163 15.3495 27.6301C15.2255 27.7406 15.1058 27.8511 14.9862 27.966C14.9862 27.966 14.9862 27.966 14.9818 27.966C14.9242 27.9527 14.9242 27.8997 14.9375 27.8555C15.1723 27.5948 15.4071 27.3384 15.6375 27.0733C15.9166 26.7507 16.1691 26.406 16.404 26.0525C17.6533 24.2317 18.916 22.4155 20.2584 20.6566C20.759 20.007 21.2774 19.3662 21.8356 18.7652C22.797 17.7488 23.7894 16.7677 24.7818 15.7778C26.0622 14.5051 27.4267 13.3119 28.9109 12.2823C30.0938 11.4868 31.3521 10.8062 32.6502 10.2185C31.4362 10.8681 30.3021 11.6591 29.159 12.4192V12.4148Z" fill="white"/>
<path d="M30.2493 34.7759C30.2138 34.851 30.1651 34.9173 30.1119 34.9792C29.5537 35.5581 28.7296 35.8586 27.9499 36.0132C27.1613 36.1768 26.3505 36.0265 25.5796 35.8542C26.3461 35.2222 27.2056 34.4842 27.3784 33.4545C27.5467 32.2216 26.3815 31.4217 25.2607 31.3687C21.5126 31.2449 18.1277 33.2733 14.9512 35.0278C13.7461 35.6862 12.4037 36.5303 10.9727 36.1989C10.7733 36.1414 10.5695 36.0132 10.5075 35.8011C10.5119 35.7437 10.4853 35.6774 10.4277 35.6509C9.9847 35.5625 10.2993 36.1856 10.5031 36.2961C12.2619 37.2992 14.7075 35.4388 16.2626 34.6345C17.8663 33.7595 19.5233 32.8756 21.2689 32.3055C22.7176 31.8769 24.4322 31.3996 25.9252 31.8018C26.6872 32.0227 27.2809 32.8182 27.0372 33.6136C26.7315 34.5328 25.9385 35.1824 25.1986 35.7569C24.0334 35.4785 22.8239 35.1736 21.6189 35.346C20.9543 35.4653 20.1879 35.6995 19.8556 36.3358C19.3372 37.3788 20.6353 37.5821 21.3885 37.56C22.8018 37.5158 24.1486 36.9369 25.2651 36.084C26.5322 36.4154 27.786 36.5391 29.022 36.0177C29.5803 35.7614 30.2138 35.4785 30.5151 34.9084C30.6081 34.7361 30.3334 34.5947 30.2448 34.767L30.2493 34.7759ZM21.3486 37.2639C20.941 37.2329 20.2233 37.2904 20.0505 36.8352C20.0239 36.2607 20.6619 35.9249 21.1404 35.779C22.3676 35.4078 23.6613 35.7172 24.8752 36C23.8518 36.7468 22.6246 37.2285 21.3486 37.2639Z" fill="white"/>
</g>
<path d="M44.0304 30.0066V17.3716H39V14.4353H52.699V17.3716H47.6685V30.0066H44.0304Z" fill="white"/>
<path d="M60.6958 30.0066V27.6709L60.4713 27.1593V22.9772C60.4713 22.2358 60.2392 21.6574 59.7751 21.2422C59.3259 20.8269 58.6298 20.6193 57.6866 20.6193C57.0428 20.6193 56.4065 20.7231 55.7777 20.9307C55.1639 21.1235 54.6399 21.3905 54.2057 21.7315L52.9481 19.3069C53.6068 18.8472 54.4003 18.4912 55.3285 18.2391C56.2568 17.987 57.2 17.861 58.1582 17.861C59.9997 17.861 61.4294 18.291 62.4475 19.1512C63.4656 20.0113 63.9746 21.3534 63.9746 23.1775V30.0066H60.6958ZM57.0128 30.1845C56.0696 30.1845 55.2612 30.0288 54.5875 29.7174C53.9137 29.3911 53.3972 28.9537 53.0379 28.405C52.6786 27.8563 52.4989 27.2408 52.4989 26.5586C52.4989 25.8468 52.6711 25.224 53.0154 24.6901C53.3748 24.1562 53.9362 23.741 54.6997 23.4444C55.4633 23.133 56.4589 22.9772 57.6866 22.9772H60.898V25.0015H58.0683C57.2449 25.0015 56.676 25.135 56.3616 25.4019C56.0622 25.6689 55.9124 26.0025 55.9124 26.4029C55.9124 26.8478 56.0846 27.2037 56.429 27.4707C56.7883 27.7228 57.2748 27.8488 57.8887 27.8488C58.4726 27.8488 58.9966 27.7154 59.4607 27.4484C59.9248 27.1667 60.2617 26.7588 60.4713 26.225L61.0102 27.8266C60.7557 28.5977 60.2916 29.1835 59.6179 29.5839C58.9442 29.9843 58.0758 30.1845 57.0128 30.1845Z" fill="white"/>
<path d="M70.6997 30.1845C69.6666 30.1845 68.671 30.0659 67.7129 29.8286C66.7696 29.5765 66.0211 29.2651 65.4671 28.8943L66.6349 26.4029C67.1888 26.744 67.8401 27.0258 68.5887 27.2482C69.3522 27.4558 70.1008 27.5597 70.8344 27.5597C71.6429 27.5597 72.2118 27.4633 72.5412 27.2705C72.8855 27.0777 73.0577 26.8108 73.0577 26.4697C73.0577 26.1879 72.9229 25.9803 72.6535 25.8468C72.3989 25.6985 72.0546 25.5873 71.6204 25.5131C71.1862 25.439 70.7072 25.3648 70.1832 25.2907C69.6741 25.2165 69.1576 25.1202 68.6336 25.0015C68.1096 24.868 67.6305 24.6753 67.1963 24.4232C66.7622 24.171 66.4103 23.83 66.1408 23.3999C65.8863 22.9698 65.7591 22.4137 65.7591 21.7315C65.7591 20.9752 65.9762 20.3079 66.4103 19.7295C66.8595 19.1512 67.5033 18.6989 68.3417 18.3726C69.1801 18.0315 70.1832 17.861 71.3509 17.861C72.1744 17.861 73.0128 17.9499 73.8661 18.1279C74.7195 18.3059 75.4307 18.5654 75.9996 18.9065L74.8318 21.3756C74.2479 21.0345 73.6565 20.8047 73.0577 20.686C72.4738 20.5526 71.9049 20.4858 71.3509 20.4858C70.5724 20.4858 70.0035 20.5897 69.6442 20.7973C69.2849 21.0049 69.1052 21.2718 69.1052 21.5981C69.1052 21.8947 69.2325 22.1171 69.487 22.2654C69.7565 22.4137 70.1083 22.5324 70.5425 22.6213C70.9766 22.7103 71.4482 22.7919 71.9573 22.866C72.4813 22.9253 73.0053 23.0217 73.5293 23.1552C74.0533 23.2887 74.5249 23.4815 74.9441 23.7336C75.3783 23.9708 75.7301 24.3045 75.9996 24.7346C76.2691 25.1498 76.4038 25.6985 76.4038 26.3807C76.4038 27.1222 76.1793 27.7821 75.7301 28.3605C75.281 28.924 74.6297 29.3689 73.7763 29.6951C72.9379 30.0214 71.9124 30.1845 70.6997 30.1845Z" fill="white"/>
<path d="M80.9519 27.5597L81.0418 23.3332L86.6786 18.0389H90.8556L85.4434 23.4889L83.6244 24.957L80.9519 27.5597ZM78.0549 30.0066V13.501H81.5583V30.0066H78.0549ZM87.0603 30.0066L82.9731 24.9793L85.1739 22.2877L91.3048 30.0066H87.0603Z" fill="white"/>
<path d="M92.3699 30.0066V18.0389H95.8732V30.0066H92.3699ZM94.1215 16.3706C93.4778 16.3706 92.9538 16.1852 92.5495 15.8145C92.1453 15.4437 91.9432 14.984 91.9432 14.4353C91.9432 13.8866 92.1453 13.4269 92.5495 13.0561C92.9538 12.6854 93.4778 12.5 94.1215 12.5C94.7653 12.5 95.2893 12.678 95.6936 13.0339C96.0978 13.375 96.2999 13.8199 96.2999 14.3686C96.2999 14.9469 96.0978 15.4289 95.6936 15.8145C95.3043 16.1852 94.7803 16.3706 94.1215 16.3706Z" fill="white"/>
<path d="M99.0409 30.0066V17.772C99.0409 16.4225 99.4451 15.3473 100.254 14.5465C101.062 13.7309 102.215 13.3231 103.712 13.3231C104.221 13.3231 104.708 13.375 105.172 13.4788C105.651 13.5826 106.055 13.7457 106.384 13.9682L105.464 16.4818C105.269 16.3483 105.052 16.2445 104.812 16.1704C104.573 16.0962 104.318 16.0592 104.049 16.0592C103.54 16.0592 103.143 16.2074 102.859 16.504C102.589 16.7858 102.454 17.2159 102.454 17.7942V18.9065L102.544 20.3969V30.0066H99.0409ZM97.177 20.9752V18.3059H105.554V20.9752H97.177Z" fill="white"/>
<path d="M108.535 34.5C107.906 34.5 107.285 34.4036 106.671 34.2108C106.057 34.018 105.556 33.7511 105.166 33.41L106.446 30.9408C106.716 31.1781 107.023 31.3635 107.367 31.497C107.726 31.6304 108.078 31.6972 108.423 31.6972C108.917 31.6972 109.306 31.5785 109.59 31.3413C109.89 31.1188 110.159 30.7406 110.399 30.2068L111.028 28.7386L111.297 28.3605L115.631 18.0389H119L113.543 30.7406C113.154 31.7046 112.704 32.4609 112.195 33.0096C111.701 33.5583 111.147 33.9439 110.534 34.1663C109.935 34.3888 109.269 34.5 108.535 34.5ZM110.601 30.4737L105.211 18.0389H108.827L113.004 28.049L110.601 30.4737Z" fill="white"/>
<defs>
<clipPath id="clip0_1_3788">
<rect width="28.7975" height="33.0688" fill="white" transform="translate(10.2021 4.5)"/>
</clipPath>
</defs>
</svg>
